<svg xmlns="http://www.w3.org/2000/svg" xmlns:xlink="http://www.w3.org/1999/xlink" version="1.1" id="dunkin_x27_" x="0px" y="0px" viewBox="0 0 250 45" style="enable-background:new 0 0 250 45;" xml:space="preserve">
<style type="text/css">
	.st0{fill:#FF6E0C;}
	.st1{fill:#F20C90;}
</style>
<path class="st0" d="M0,36.05V8.95c0-4.62,3.39-8.01,8.01-8.01h9.55c12.62,0,22.72,8.31,22.72,21.55c0,13.24-10.1,21.55-22.72,21.55  H8.01C3.39,44.05,0,40.67,0,36.05 M17.98,30.26c4.62,0,8.01-2.96,8.01-7.76c0-4.8-3.39-7.76-8.01-7.76h-3.7v15.52H17.98z"/>
<path class="st0" d="M43.97,26.44V7.35c0-4.19,3.02-7.27,7.14-7.27c4.13,0,7.14,3.08,7.14,7.27v18.6c0,2.83,2.09,4.8,4.56,4.8  c2.46,0,4.56-1.97,4.56-4.8V7.35c0-4.19,3.02-7.27,7.14-7.27c4.13,0,7.14,3.08,7.14,7.27v19.09c0,10.65-7.51,18.47-18.84,18.47  S43.97,37.1,43.97,26.44"/>
<path class="st0" d="M86.59,36.85V6.8c0-3.94,3.02-6.71,6.9-6.71c3.02,0,4.99,1.36,6.65,3.57l8.25,11.09  c1.48,1.97,3.08,4.19,4.43,6.53V8.09c0-4.68,2.46-8.01,7.14-8.01c4.68,0,7.14,3.33,7.14,8.01V38.2c0,3.94-3.02,6.71-6.84,6.71  c-3.08,0-4.99-1.35-6.71-3.57l-8.74-11.08c-1.29-1.66-2.77-3.88-3.94-5.73v12.32c0,4.74-2.46,8.07-7.14,8.07  C89.05,44.92,86.59,41.59,86.59,36.85"/>
<path class="st0" d="M155.07,41.71l-5.67-6.9c-1.35-1.66-1.91-2.34-3.08-3.94v6.77c0,4.25-2.96,7.27-7.14,7.27  c-4.19,0-7.14-3.02-7.14-7.27V7.35c0-4.25,2.96-7.27,7.14-7.27c4.19,0,7.14,3.02,7.14,7.27v6.53c1.11-1.6,1.72-2.4,3.08-4.13  l4.93-6.28c6.53-8.31,18.11,1.42,11.08,9.61l-7.88,9.24l8.5,9.61C172.74,39.5,161.91,50.09,155.07,41.71"/>
<path class="st0" d="M172.62,37.65V7.35c0-4.25,2.96-7.27,7.14-7.27c4.19,0,7.14,3.02,7.14,7.27v30.3c0,4.25-2.96,7.27-7.14,7.27  C175.58,44.92,172.62,41.9,172.62,37.65"/>
<path class="st0" d="M191.83,36.85V6.8c0-3.94,3.02-6.71,6.9-6.71c3.02,0,4.99,1.36,6.65,3.57l8.25,11.09  c1.48,1.97,3.08,4.19,4.43,6.53V8.09c0-4.68,2.46-8.01,7.14-8.01c4.68,0,7.14,3.33,7.14,8.01V38.2c0,3.94-3.02,6.71-6.84,6.71  c-3.08,0-4.99-1.35-6.71-3.57l-8.74-11.08c-1.29-1.66-2.77-3.88-3.94-5.73v12.32c0,4.74-2.46,8.07-7.14,8.07  S191.83,41.59,191.83,36.85"/>
<path class="st1" d="M244.31,0.17c2.48,0.33,5.08,2.05,5.6,5.13c0.28,1.69-0.11,3.89-0.87,6.56c-0.73,2.57-1.48,4.94-3.11,6.37  c-1.3,1.14-2.87,1.4-4.15,1.23l-0.06-0.01c-1.28-0.17-2.73-0.84-3.68-2.27c-1.21-1.81-1.31-4.29-1.34-6.96  c-0.04-2.78,0.16-5.01,0.87-6.56C238.87,0.82,241.83-0.17,244.31,0.17"/>
<path class="st0" d="M240.35,41.78c0,1.49-1.24,2.7-2.78,2.7c-1.54,0-2.78-1.21-2.78-2.7c0-1.49,1.24-2.7,2.78-2.7  C239.11,39.08,240.35,40.29,240.35,41.78 M239.54,41.78c0-1.08-0.88-1.96-1.96-1.96c-1.08,0-1.96,0.88-1.96,1.96  c0,1.08,0.88,1.96,1.96,1.96C238.66,43.74,239.54,42.87,239.54,41.78 M238.59,42.46c0.07,0.1,0.12,0.18,0.12,0.29  c0,0.24-0.16,0.4-0.4,0.4c-0.13,0-0.25-0.07-0.33-0.17l-0.53-0.72h-0.1v0.48c0,0.24-0.17,0.41-0.4,0.41c-0.24,0-0.4-0.17-0.4-0.41  v-1.92c0-0.24,0.17-0.41,0.41-0.41h0.8c0.52,0,0.92,0.37,0.92,0.92c0,0.33-0.14,0.59-0.36,0.74L238.59,42.46z M237.35,41.6h0.23  c0.17,0,0.3-0.1,0.3-0.27c0-0.17-0.13-0.27-0.3-0.27h-0.23V41.6z"/>
</svg>